<mxfile host="app.diagrams.net" modified="2024-06-09T23:43:43.094Z" agent="Mozilla/5.0 (Windows NT 10.0; Win64; x64) AppleWebKit/537.36 (KHTML, like Gecko) Chrome/125.0.0.0 Safari/537.36" version="24.5.2" etag="uVvy0vhsL0u4mKuTSr0B" type="github">
  <diagram name="PÃ¡gina-1" id="kpOXd3R2qpbjamJir9ub">
    <mxGraphModel>
      <root>
        <mxCell id="0" />
        <mxCell id="1" parent="0" />
      </root>
    </mxGraphModel>
  </diagram>
</mxfile>
